<svg xmlns="http://www.w3.org/2000/svg" width="1600" height="1000" viewBox="0 0 1600 1000" font-family="monospace">
<rect width="100%" height="100%" fill="white"/>
<text x="8" y="16" font-size="13" fill="#666">base-rectangular - partially radiused.DXF</text>
<polyline points="680.59,407.45 680.88,407.14 681.16,406.82 681.43,406.49 681.68,406.15 681.92,405.8 682.14,405.43 682.34,405.06 682.53,404.68 682.7,404.29 682.86,403.89 682.99,403.49 683.11,403.08 683.21,402.67 683.3,402.25 683.36,401.83 683.41,401.41 683.44,400.98 683.45,400.56 683.44,400.13 683.41,399.71 683.36,399.29 683.3,398.87 683.21,398.45 683.11,398.04 682.99,397.63 682.86,397.23 682.7,396.83 682.53,396.44 682.34,396.06 682.14,395.69 681.92,395.32 681.68,394.97 681.43,394.63 681.16,394.29 680.88,393.97 680.59,393.67 680.28,393.37 679.96,393.09 679.63,392.83 679.29,392.58 678.94,392.34 678.57,392.12 678.2,391.91 677.82,391.73 677.43,391.55 677.03,391.4 676.63,391.26 676.22,391.14 675.81,391.04 675.39,390.96 674.97,390.9 674.55,390.85 674.12,390.82 673.7,390.81 673.27,390.82 672.85,390.85 672.43,390.9 672.01,390.96 671.59,391.04 671.18,391.14 670.77,391.26 670.37,391.4 669.97,391.55 669.58,391.73 669.2,391.91 668.83,392.12 668.46,392.34 668.11,392.58 667.77,392.83 667.43,393.09 667.11,393.37 666.81,393.67" fill="none" stroke="#d00" stroke-width="2.5" vector-effect="non-scaling-stroke"/>
<polyline points="970.64,393.67 970.34,393.37 970.02,393.09 969.68,392.83 969.34,392.58 968.99,392.34 968.62,392.12 968.25,391.91 967.87,391.73 967.48,391.55 967.08,391.4 966.68,391.26 966.27,391.14 965.86,391.04 965.44,390.96 965.02,390.9 964.6,390.85 964.18,390.82 963.75,390.81 963.33,390.82 962.9,390.85 962.48,390.9 962.06,390.96 961.64,391.04 961.23,391.14 960.82,391.26 960.42,391.4 960.02,391.55 959.63,391.73 959.25,391.91 958.88,392.12 958.51,392.34 958.16,392.58 957.82,392.83 957.49,393.09 957.17,393.37 956.86,393.67 956.57,393.97 956.28,394.29 956.02,394.63 955.77,394.97 955.53,395.32 955.31,395.69 955.11,396.06 954.92,396.44 954.75,396.83 954.59,397.23 954.46,397.63 954.34,398.04 954.24,398.45 954.15,398.87 954.09,399.29 954.04,399.71 954.01,400.13 954.0,400.56 954.01,400.98 954.04,401.41 954.09,401.83 954.15,402.25 954.24,402.67 954.34,403.08 954.46,403.49 954.59,403.89 954.75,404.29 954.92,404.68 955.11,405.06 955.31,405.43 955.53,405.8 955.77,406.15 956.02,406.49 956.28,406.82 956.57,407.14 956.86,407.45" fill="none" stroke="#d00" stroke-width="2.5" vector-effect="non-scaling-stroke"/>
<polyline points="953.07,178.69 953.13,178.84 953.19,178.99 953.26,179.14 953.34,179.29 953.42,179.43 953.5,179.57 953.59,179.71 953.69,179.84 953.79,179.97 953.89,180.1 954.0,180.23 954.11,180.35 954.22,180.47 954.34,180.58 954.47,180.69 954.59,180.79 954.72,180.89 954.86,180.99 954.99,181.08 955.13,181.17 955.27,181.25 955.42,181.33 955.57,181.4 955.72,181.47 955.87,181.53 956.02,181.59 956.18,181.64 956.34,181.68 956.5,181.73 956.66,181.76 956.82,181.79 956.98,181.82 957.14,181.84 957.31,181.85 957.47,181.86 957.64,181.86 957.8,181.86 957.97,181.85 958.13,181.84 958.29,181.82 958.46,181.79 958.62,181.76 958.78,181.73 958.94,181.68 959.09,181.64 959.25,181.59 959.4,181.53 959.56,181.47 959.71,181.4 959.85,181.33 960.0,181.25 960.14,181.17 960.28,181.08 960.42,180.99 960.55,180.89 960.68,180.79 960.81,180.69 960.93,180.58 961.05,180.47 961.17,180.35 961.28,180.23 961.38,180.1 961.49,179.97 961.59,179.84 961.68,179.71 961.77,179.57 961.85,179.43 961.93,179.29 962.01,179.14 962.08,178.99 962.14,178.84 962.2,178.69" fill="none" stroke="#d00" stroke-width="2.5" vector-effect="non-scaling-stroke"/>
<polyline points="1527.27,306.49 1527.27,306.43 1527.27,306.37 1527.27,306.31 1527.26,306.25 1527.26,306.19 1527.25,306.13 1527.24,306.07 1527.23,306.01 1527.22,305.95 1527.21,305.89 1527.19,305.83 1527.18,305.77 1527.16,305.72 1527.14,305.66 1527.13,305.6 1527.11,305.54 1527.08,305.49 1527.06,305.43 1527.04,305.38 1527.01,305.32 1526.99,305.27 1526.96,305.21 1526.93,305.16 1526.9,305.11 1526.87,305.06 1526.84,305.0 1526.81,304.95 1526.77,304.9 1526.74,304.86 1526.7,304.81 1526.66,304.76 1526.63,304.71 1526.59,304.67 1526.55,304.62 1526.51,304.58 1526.46,304.54 1526.42,304.49 1526.38,304.45 1526.33,304.41 1526.29,304.37 1526.24,304.33 1526.19,304.3 1526.14,304.26 1526.09,304.23 1526.04,304.19 1525.99,304.16 1525.94,304.13 1525.89,304.1 1525.84,304.07 1525.79,304.04 1525.73,304.01 1525.68,303.99 1525.62,303.96 1525.57,303.94 1525.51,303.91 1525.45,303.89 1525.4,303.87 1525.34,303.85 1525.28,303.84 1525.23,303.82 1525.17,303.81 1525.11,303.79 1525.05,303.78 1524.99,303.77 1524.93,303.76 1524.87,303.75 1524.81,303.74 1524.75,303.74 1524.69,303.73 1524.63,303.73 1524.57,303.73 1524.51,303.73" fill="none" stroke="#e08000" stroke-width="1" vector-effect="non-scaling-stroke"/>
<polyline points="1524.5,303.73 1524.45,303.73 1524.4,303.73 1524.35,303.73 1524.31,303.73 1524.26,303.74 1524.21,303.74 1524.16,303.75 1524.12,303.76 1524.07,303.76 1524.02,303.77 1523.98,303.78 1523.93,303.79 1523.88,303.8 1523.84,303.82 1523.79,303.83 1523.74,303.84 1523.7,303.86 1523.65,303.88 1523.61,303.89 1523.56,303.91 1523.52,303.93 1523.48,303.95 1523.43,303.97 1523.39,303.99 1523.35,304.01 1523.31,304.04 1523.26,304.06 1523.22,304.08 1523.18,304.11 1523.14,304.13 1523.1,304.16 1523.06,304.19 1523.03,304.22 1522.99,304.25 1522.95,304.28 1522.91,304.31 1522.88,304.34 1522.84,304.37 1522.81,304.4 1522.77,304.44 1522.74,304.47 1522.7,304.5 1522.67,304.54 1522.64,304.58 1522.61,304.61 1522.58,304.65 1522.55,304.69 1522.52,304.73 1522.49,304.76 1522.47,304.8 1522.44,304.84 1522.41,304.88 1522.39,304.92 1522.36,304.97 1522.34,305.01 1522.32,305.05 1522.3,305.09 1522.28,305.14 1522.26,305.18 1522.24,305.22 1522.22,305.27 1522.2,305.31 1522.19,305.36 1522.17,305.4 1522.15,305.45 1522.14,305.49 1522.13,305.54 1522.12,305.59 1522.1,305.63 1522.09,305.68 1522.09,305.73 1522.08,305.77" fill="none" stroke="#e08000" stroke-width="1" vector-effect="non-scaling-stroke"/>
<polyline points="1490.38,303.11 1490.39,303.77 1490.43,304.43 1490.5,305.09 1490.59,305.74 1490.71,306.39 1490.86,307.03 1491.04,307.66 1491.24,308.29 1491.47,308.91 1491.72,309.52 1492.0,310.12 1492.3,310.7 1492.62,311.28 1492.97,311.84 1493.34,312.38 1493.74,312.91 1494.15,313.42 1494.59,313.92 1495.04,314.39 1495.52,314.85 1496.01,315.29 1496.53,315.7 1497.05,316.1 1497.6,316.47 1498.16,316.82 1498.73,317.15 1499.32,317.45 1499.91,317.73 1500.52,317.98 1501.14,318.21 1501.77,318.41 1502.4,318.58 1503.05,318.73 1503.69,318.85 1504.35,318.95 1505.0,319.02 1505.66,319.06 1506.32,319.07 1506.98,319.06 1507.64,319.02 1508.29,318.95 1508.95,318.86 1509.59,318.74 1510.24,318.59 1510.87,318.42 1511.5,318.22 1512.12,317.99 1512.73,317.74 1513.33,317.46 1513.91,317.16 1514.49,316.84 1515.05,316.49 1515.59,316.12 1516.12,315.72 1516.63,315.31 1517.13,314.87 1517.61,314.42 1518.06,313.94 1518.5,313.45 1518.92,312.94 1519.31,312.41 1519.68,311.87 1520.04,311.31 1520.36,310.74 1520.66,310.15 1520.94,309.55 1521.2,308.94 1521.42,308.33 1521.63,307.7 1521.8,307.06 1521.95,306.42 1522.08,305.77" fill="none" stroke="#e08000" stroke-width="1" vector-effect="non-scaling-stroke"/>
<polyline points="1522.08,269.76 1521.95,269.11 1521.8,268.47 1521.63,267.83 1521.42,267.2 1521.2,266.58 1520.94,265.98 1520.66,265.38 1520.36,264.79 1520.04,264.22 1519.68,263.66 1519.31,263.12 1518.92,262.59 1518.5,262.08 1518.06,261.59 1517.61,261.11 1517.13,260.65 1516.63,260.22 1516.12,259.8 1515.59,259.41 1515.05,259.04 1514.49,258.69 1513.91,258.37 1513.33,258.07 1512.73,257.79 1512.12,257.54 1511.5,257.31 1510.87,257.11 1510.24,256.94 1509.59,256.79 1508.95,256.67 1508.29,256.57 1507.64,256.51 1506.98,256.47 1506.32,256.45 1505.66,256.47 1505.0,256.51 1504.35,256.58 1503.69,256.67 1503.05,256.8 1502.4,256.95 1501.77,257.12 1501.14,257.32 1500.52,257.55 1499.91,257.8 1499.32,258.08 1498.73,258.38 1498.16,258.71 1497.6,259.06 1497.05,259.43 1496.53,259.83 1496.01,260.24 1495.52,260.68 1495.04,261.14 1494.59,261.61 1494.15,262.11 1493.74,262.62 1493.34,263.15 1492.97,263.69 1492.62,264.25 1492.3,264.82 1492.0,265.41 1491.72,266.01 1491.47,266.62 1491.24,267.24 1491.04,267.86 1490.86,268.5 1490.71,269.14 1490.59,269.79 1490.5,270.44 1490.43,271.1 1490.39,271.76 1490.38,272.42" fill="none" stroke="#e08000" stroke-width="1" vector-effect="non-scaling-stroke"/>
<polyline points="1522.08,269.76 1522.09,269.8 1522.09,269.85 1522.1,269.9 1522.12,269.94 1522.13,269.99 1522.14,270.04 1522.15,270.08 1522.17,270.13 1522.19,270.17 1522.2,270.22 1522.22,270.26 1522.24,270.31 1522.26,270.35 1522.28,270.39 1522.3,270.44 1522.32,270.48 1522.34,270.52 1522.36,270.56 1522.39,270.6 1522.41,270.65 1522.44,270.69 1522.47,270.73 1522.49,270.76 1522.52,270.8 1522.55,270.84 1522.58,270.88 1522.61,270.92 1522.64,270.95 1522.67,270.99 1522.7,271.02 1522.74,271.06 1522.77,271.09 1522.81,271.13 1522.84,271.16 1522.88,271.19 1522.91,271.22 1522.95,271.25 1522.99,271.28 1523.03,271.31 1523.06,271.34 1523.1,271.37 1523.14,271.39 1523.18,271.42 1523.22,271.45 1523.26,271.47 1523.31,271.49 1523.35,271.52 1523.39,271.54 1523.43,271.56 1523.48,271.58 1523.52,271.6 1523.56,271.62 1523.61,271.64 1523.65,271.65 1523.7,271.67 1523.74,271.68 1523.79,271.7 1523.84,271.71 1523.88,271.72 1523.93,271.74 1523.98,271.75 1524.02,271.76 1524.07,271.76 1524.12,271.77 1524.16,271.78 1524.21,271.79 1524.26,271.79 1524.31,271.79 1524.35,271.8 1524.4,271.8 1524.45,271.8 1524.5,271.8" fill="none" stroke="#e08000" stroke-width="1" vector-effect="non-scaling-stroke"/>
<polyline points="1524.51,271.8 1524.57,271.8 1524.63,271.8 1524.69,271.8 1524.75,271.79 1524.81,271.79 1524.87,271.78 1524.93,271.77 1524.99,271.76 1525.05,271.75 1525.11,271.74 1525.17,271.72 1525.23,271.71 1525.28,271.69 1525.34,271.67 1525.4,271.66 1525.45,271.64 1525.51,271.61 1525.57,271.59 1525.62,271.57 1525.68,271.54 1525.73,271.52 1525.79,271.49 1525.84,271.46 1525.89,271.43 1525.94,271.4 1525.99,271.37 1526.04,271.34 1526.09,271.3 1526.14,271.27 1526.19,271.23 1526.24,271.19 1526.29,271.16 1526.33,271.12 1526.38,271.08 1526.42,271.04 1526.46,270.99 1526.51,270.95 1526.55,270.91 1526.59,270.86 1526.63,270.82 1526.66,270.77 1526.7,270.72 1526.74,270.67 1526.77,270.62 1526.81,270.57 1526.84,270.52 1526.87,270.47 1526.9,270.42 1526.93,270.37 1526.96,270.32 1526.99,270.26 1527.01,270.21 1527.04,270.15 1527.06,270.1 1527.08,270.04 1527.11,269.98 1527.13,269.93 1527.14,269.87 1527.16,269.81 1527.18,269.75 1527.19,269.7 1527.21,269.64 1527.22,269.58 1527.23,269.52 1527.24,269.46 1527.25,269.4 1527.26,269.34 1527.26,269.28 1527.27,269.22 1527.27,269.16 1527.27,269.1 1527.27,269.04" fill="none" stroke="#e08000" stroke-width="1" vector-effect="non-scaling-stroke"/>
<polyline points="106.49,272.42 106.56,272.42 106.63,272.41 106.69,272.41 106.76,272.4 106.83,272.4 106.89,272.39 106.96,272.38 107.03,272.37 107.09,272.36 107.16,272.34 107.22,272.33 107.29,272.31 107.35,272.29 107.42,272.27 107.48,272.25 107.54,272.23 107.61,272.21 107.67,272.18 107.73,272.16 107.79,272.13 107.85,272.1 107.91,272.07 107.97,272.04 108.03,272.0 108.09,271.97 108.14,271.94 108.2,271.9 108.25,271.86 108.31,271.82 108.36,271.78 108.41,271.74 108.47,271.7 108.52,271.65 108.57,271.61 108.62,271.56 108.66,271.52 108.71,271.47 108.76,271.42 108.8,271.37 108.84,271.32 108.89,271.27 108.93,271.22 108.97,271.16 109.01,271.11 109.05,271.05 109.08,271.0 109.12,270.94 109.15,270.88 109.18,270.82 109.22,270.76 109.25,270.7 109.28,270.64 109.3,270.58 109.33,270.52 109.35,270.46 109.38,270.4 109.4,270.33 109.42,270.27 109.44,270.21 109.46,270.14 109.48,270.08 109.49,270.01 109.5,269.95 109.52,269.88 109.53,269.81 109.54,269.75 109.54,269.68 109.55,269.61 109.56,269.55 109.56,269.48 109.56,269.41 109.56,269.35" fill="none" stroke="#e08000" stroke-width="1" vector-effect="non-scaling-stroke"/>
<polyline points="103.21,269.86 103.22,269.92 103.23,269.98 103.24,270.03 103.26,270.09 103.27,270.15 103.29,270.21 103.31,270.26 103.33,270.32 103.34,270.38 103.37,270.43 103.39,270.49 103.41,270.55 103.43,270.6 103.46,270.65 103.49,270.71 103.51,270.76 103.54,270.81 103.57,270.87 103.6,270.92 103.63,270.97 103.66,271.02 103.7,271.07 103.73,271.12 103.76,271.17 103.8,271.22 103.84,271.26 103.88,271.31 103.91,271.35 103.95,271.4 103.99,271.44 104.04,271.49 104.08,271.53 104.12,271.57 104.16,271.61 104.21,271.65 104.25,271.69 104.3,271.73 104.35,271.77 104.39,271.8 104.44,271.84 104.49,271.87 104.54,271.91 104.59,271.94 104.64,271.97 104.69,272.0 104.75,272.03 104.8,272.06 104.85,272.09 104.91,272.11 104.96,272.14 105.01,272.16 105.07,272.19 105.12,272.21 105.18,272.23 105.24,272.25 105.29,272.27 105.35,272.29 105.41,272.3 105.47,272.32 105.52,272.33 105.58,272.35 105.64,272.36 105.7,272.37 105.76,272.38 105.82,272.39 105.88,272.4 105.94,272.4 106.0,272.41 106.06,272.41 106.12,272.41 106.18,272.42 106.24,272.42" fill="none" stroke="#e08000" stroke-width="1" vector-effect="non-scaling-stroke"/>
<polyline points="103.21,269.86 103.09,269.24 102.95,268.62 102.78,268.01 102.58,267.4 102.36,266.81 102.12,266.22 101.85,265.65 101.56,265.09 101.25,264.54 100.91,264.0 100.55,263.48 100.17,262.97 99.77,262.48 99.35,262.0 98.91,261.55 98.45,261.11 97.98,260.69 97.48,260.29 96.97,259.91 96.45,259.55 95.91,259.22 95.36,258.91 94.8,258.62 94.22,258.35 93.64,258.11 93.04,257.89 92.44,257.7 91.82,257.53 91.21,257.39 90.58,257.27 89.96,257.18 89.33,257.12 88.69,257.08 88.06,257.07 87.42,257.08 86.79,257.12 86.16,257.19 85.53,257.28 84.91,257.4 84.29,257.54 83.68,257.71 83.08,257.9 82.48,258.12 81.9,258.37 81.32,258.63 80.76,258.92 80.21,259.24 79.67,259.57 79.15,259.93 78.64,260.31 78.15,260.71 77.67,261.13 77.22,261.57 76.78,262.03 76.36,262.5 75.96,262.99 75.58,263.5 75.22,264.03 74.89,264.56 74.57,265.12 74.28,265.68 74.02,266.25 73.78,266.84 73.56,267.44 73.36,268.04 73.2,268.65 73.05,269.27 72.94,269.89 72.84,270.52 72.78,271.15 72.74,271.78 72.73,272.42" fill="none" stroke="#e08000" stroke-width="1" vector-effect="non-scaling-stroke"/>
<polyline points="72.73,303.11 72.74,303.75 72.78,304.38 72.84,305.01 72.94,305.64 73.05,306.26 73.2,306.88 73.36,307.49 73.56,308.09 73.78,308.69 74.02,309.27 74.28,309.85 74.57,310.41 74.89,310.96 75.22,311.5 75.58,312.03 75.96,312.53 76.36,313.03 76.78,313.5 77.22,313.96 77.67,314.4 78.15,314.82 78.64,315.22 79.15,315.6 79.67,315.96 80.21,316.29 80.76,316.61 81.32,316.9 81.9,317.16 82.48,317.41 83.08,317.62 83.68,317.82 84.29,317.99 84.91,318.13 85.53,318.25 86.16,318.34 86.79,318.41 87.42,318.45 88.06,318.46 88.69,318.45 89.33,318.41 89.96,318.35 90.58,318.25 91.21,318.14 91.82,318.0 92.44,317.83 93.04,317.64 93.64,317.42 94.22,317.18 94.8,316.91 95.36,316.62 95.91,316.31 96.45,315.97 96.97,315.62 97.48,315.24 97.98,314.84 98.45,314.42 98.91,313.98 99.35,313.53 99.77,313.05 100.17,312.56 100.55,312.05 100.91,311.53 101.25,310.99 101.56,310.44 101.85,309.88 102.12,309.3 102.36,308.72 102.58,308.12 102.78,307.52 102.95,306.91 103.09,306.29 103.21,305.67" fill="none" stroke="#e08000" stroke-width="1" vector-effect="non-scaling-stroke"/>
<polyline points="106.24,303.11 106.18,303.11 106.12,303.11 106.06,303.12 106.0,303.12 105.94,303.13 105.88,303.13 105.82,303.14 105.76,303.15 105.7,303.16 105.64,303.17 105.58,303.18 105.52,303.2 105.47,303.21 105.41,303.23 105.35,303.24 105.29,303.26 105.24,303.28 105.18,303.3 105.12,303.32 105.07,303.34 105.01,303.37 104.96,303.39 104.91,303.42 104.85,303.44 104.8,303.47 104.75,303.5 104.69,303.53 104.64,303.56 104.59,303.59 104.54,303.62 104.49,303.66 104.44,303.69 104.39,303.73 104.35,303.76 104.3,303.8 104.25,303.84 104.21,303.88 104.16,303.92 104.12,303.96 104.08,304.0 104.04,304.04 103.99,304.08 103.95,304.13 103.91,304.17 103.88,304.22 103.84,304.27 103.8,304.31 103.76,304.36 103.73,304.41 103.7,304.46 103.66,304.51 103.63,304.56 103.6,304.61 103.57,304.66 103.54,304.71 103.51,304.77 103.49,304.82 103.46,304.87 103.43,304.93 103.41,304.98 103.39,305.04 103.37,305.09 103.34,305.15 103.33,305.21 103.31,305.26 103.29,305.32 103.27,305.38 103.26,305.44 103.24,305.49 103.23,305.55 103.22,305.61 103.21,305.67" fill="none" stroke="#e08000" stroke-width="1" vector-effect="non-scaling-stroke"/>
<polyline points="109.56,306.18 109.56,306.12 109.56,306.05 109.56,305.98 109.55,305.91 109.54,305.85 109.54,305.78 109.53,305.72 109.52,305.65 109.5,305.58 109.49,305.52 109.48,305.45 109.46,305.39 109.44,305.32 109.42,305.26 109.4,305.2 109.38,305.13 109.35,305.07 109.33,305.01 109.3,304.95 109.28,304.88 109.25,304.82 109.22,304.76 109.18,304.71 109.15,304.65 109.12,304.59 109.08,304.53 109.05,304.48 109.01,304.42 108.97,304.37 108.93,304.31 108.89,304.26 108.84,304.21 108.8,304.16 108.76,304.11 108.71,304.06 108.66,304.01 108.62,303.96 108.57,303.92 108.52,303.87 108.47,303.83 108.41,303.79 108.36,303.75 108.31,303.71 108.25,303.67 108.2,303.63 108.14,303.59 108.09,303.56 108.03,303.52 107.97,303.49 107.91,303.46 107.85,303.43 107.79,303.4 107.73,303.37 107.67,303.35 107.61,303.32 107.54,303.3 107.48,303.28 107.42,303.25 107.35,303.24 107.29,303.22 107.22,303.2 107.16,303.19 107.09,303.17 107.03,303.16 106.96,303.15 106.89,303.14 106.83,303.13 106.76,303.12 106.69,303.12 106.63,303.12 106.56,303.11 106.49,303.11" fill="none" stroke="#e08000" stroke-width="1" vector-effect="non-scaling-stroke"/>
<line x1="1201.7" y1="394.45" x2="1384.79" y2="394.45" stroke="#1a1a1a" stroke-width="1" vector-effect="non-scaling-stroke"/>
<line x1="1393.1" y1="394.45" x2="1527.27" y2="394.45" stroke="#1a1a1a" stroke-width="1" vector-effect="non-scaling-stroke"/>
<line x1="1527.27" y1="181.08" x2="1393.1" y2="181.08" stroke="#1a1a1a" stroke-width="1" vector-effect="non-scaling-stroke"/>
<line x1="1388.94" y1="181.86" x2="1388.94" y2="393.67" stroke="#1a1a1a" stroke-width="1" vector-effect="non-scaling-stroke"/>
<line x1="1384.79" y1="181.08" x2="961.79" y2="181.08" stroke="#1a1a1a" stroke-width="1" vector-effect="non-scaling-stroke"/>
<line x1="957.64" y1="181.86" x2="957.64" y2="392.97" stroke="#1a1a1a" stroke-width="1" vector-effect="non-scaling-stroke"/>
<line x1="956.86" y1="412.89" x2="680.59" y2="412.89" stroke="#1a1a1a" stroke-width="1" vector-effect="non-scaling-stroke"/>
<line x1="679.81" y1="181.86" x2="679.81" y2="392.97" stroke="#1a1a1a" stroke-width="1" vector-effect="non-scaling-stroke"/>
<line x1="953.48" y1="181.08" x2="683.97" y2="181.08" stroke="#1a1a1a" stroke-width="1" vector-effect="non-scaling-stroke"/>
<line x1="675.66" y1="181.08" x2="252.66" y2="181.08" stroke="#1a1a1a" stroke-width="1" vector-effect="non-scaling-stroke"/>
<line x1="252.66" y1="394.45" x2="435.75" y2="394.45" stroke="#1a1a1a" stroke-width="1" vector-effect="non-scaling-stroke"/>
<line x1="109.56" y1="394.45" x2="244.35" y2="394.45" stroke="#1a1a1a" stroke-width="1" vector-effect="non-scaling-stroke"/>
<line x1="244.35" y1="181.08" x2="109.56" y2="181.08" stroke="#1a1a1a" stroke-width="1" vector-effect="non-scaling-stroke"/>
<line x1="248.51" y1="393.67" x2="248.51" y2="181.86" stroke="#1a1a1a" stroke-width="1" vector-effect="non-scaling-stroke"/>
<line x1="970.64" y1="393.67" x2="1201.68" y2="393.67" stroke="#1a1a1a" stroke-width="1" vector-effect="non-scaling-stroke"/>
<line x1="952.4" y1="178.01" x2="953.07" y2="178.69" stroke="#1a1a1a" stroke-width="1" vector-effect="non-scaling-stroke"/>
<line x1="962.2" y1="178.69" x2="962.88" y2="178.01" stroke="#1a1a1a" stroke-width="1" vector-effect="non-scaling-stroke"/>
<line x1="953.48" y1="181.08" x2="955.0" y2="181.08" stroke="#1a1a1a" stroke-width="1" vector-effect="non-scaling-stroke"/>
<line x1="961.79" y1="181.08" x2="960.28" y2="181.08" stroke="#1a1a1a" stroke-width="1" vector-effect="non-scaling-stroke"/>
<line x1="1201.68" y1="393.67" x2="1201.68" y2="391.36" stroke="#1a1a1a" stroke-width="1" vector-effect="non-scaling-stroke"/>
<line x1="1201.68" y1="391.36" x2="1201.7" y2="391.36" stroke="#1a1a1a" stroke-width="1" vector-effect="non-scaling-stroke"/>
<line x1="1201.7" y1="391.36" x2="1201.7" y2="475.03" stroke="#1a1a1a" stroke-width="1" vector-effect="non-scaling-stroke"/>
<line x1="1201.7" y1="475.03" x2="1306.18" y2="475.03" stroke="#1a1a1a" stroke-width="1" vector-effect="non-scaling-stroke"/>
<line x1="1306.18" y1="475.03" x2="1383.7" y2="397.51" stroke="#1a1a1a" stroke-width="1" vector-effect="non-scaling-stroke"/>
<line x1="1383.7" y1="397.51" x2="1385.87" y2="391.38" stroke="#1a1a1a" stroke-width="1" vector-effect="non-scaling-stroke"/>
<line x1="1385.87" y1="391.38" x2="1385.87" y2="393.67" stroke="#1a1a1a" stroke-width="1" vector-effect="non-scaling-stroke"/>
<line x1="1385.87" y1="393.67" x2="1392.01" y2="393.67" stroke="#1a1a1a" stroke-width="1" vector-effect="non-scaling-stroke"/>
<line x1="1392.01" y1="393.67" x2="1392.01" y2="391.38" stroke="#1a1a1a" stroke-width="1" vector-effect="non-scaling-stroke"/>
<line x1="1392.01" y1="391.38" x2="1394.18" y2="397.51" stroke="#1a1a1a" stroke-width="1" vector-effect="non-scaling-stroke"/>
<line x1="1394.18" y1="397.51" x2="1471.7" y2="475.03" stroke="#1a1a1a" stroke-width="1" vector-effect="non-scaling-stroke"/>
<line x1="1471.7" y1="475.03" x2="1527.27" y2="475.03" stroke="#1a1a1a" stroke-width="1" vector-effect="non-scaling-stroke"/>
<line x1="1527.27" y1="475.03" x2="1527.27" y2="306.49" stroke="#1a1a1a" stroke-width="1" vector-effect="non-scaling-stroke"/>
<line x1="1524.51" y1="303.73" x2="1524.5" y2="303.73" stroke="#1a1a1a" stroke-width="1" vector-effect="non-scaling-stroke"/>
<line x1="1490.38" y1="303.11" x2="1490.38" y2="272.42" stroke="#1a1a1a" stroke-width="1" vector-effect="non-scaling-stroke"/>
<line x1="1524.5" y1="271.8" x2="1524.51" y2="271.8" stroke="#1a1a1a" stroke-width="1" vector-effect="non-scaling-stroke"/>
<line x1="1527.27" y1="269.04" x2="1527.27" y2="131.19" stroke="#1a1a1a" stroke-width="1" vector-effect="non-scaling-stroke"/>
<line x1="1527.27" y1="131.19" x2="1441.01" y2="131.19" stroke="#1a1a1a" stroke-width="1" vector-effect="non-scaling-stroke"/>
<line x1="1441.01" y1="131.19" x2="1394.18" y2="178.01" stroke="#1a1a1a" stroke-width="1" vector-effect="non-scaling-stroke"/>
<line x1="1394.18" y1="178.01" x2="1392.01" y2="184.15" stroke="#1a1a1a" stroke-width="1" vector-effect="non-scaling-stroke"/>
<line x1="1392.01" y1="184.15" x2="1392.01" y2="181.86" stroke="#1a1a1a" stroke-width="1" vector-effect="non-scaling-stroke"/>
<line x1="1392.01" y1="181.86" x2="1385.87" y2="181.86" stroke="#1a1a1a" stroke-width="1" vector-effect="non-scaling-stroke"/>
<line x1="1385.87" y1="181.86" x2="1385.87" y2="184.15" stroke="#1a1a1a" stroke-width="1" vector-effect="non-scaling-stroke"/>
<line x1="1385.87" y1="184.15" x2="1383.7" y2="178.01" stroke="#1a1a1a" stroke-width="1" vector-effect="non-scaling-stroke"/>
<line x1="1383.7" y1="178.01" x2="1336.88" y2="131.19" stroke="#1a1a1a" stroke-width="1" vector-effect="non-scaling-stroke"/>
<line x1="1336.88" y1="131.19" x2="1009.7" y2="131.19" stroke="#1a1a1a" stroke-width="1" vector-effect="non-scaling-stroke"/>
<line x1="1009.7" y1="131.19" x2="962.88" y2="178.01" stroke="#1a1a1a" stroke-width="1" vector-effect="non-scaling-stroke"/>
<line x1="952.4" y1="178.01" x2="905.57" y2="131.19" stroke="#1a1a1a" stroke-width="1" vector-effect="non-scaling-stroke"/>
<line x1="905.57" y1="131.19" x2="731.88" y2="131.19" stroke="#1a1a1a" stroke-width="1" vector-effect="non-scaling-stroke"/>
<line x1="731.88" y1="131.19" x2="685.05" y2="178.01" stroke="#1a1a1a" stroke-width="1" vector-effect="non-scaling-stroke"/>
<line x1="685.05" y1="178.01" x2="682.88" y2="184.15" stroke="#1a1a1a" stroke-width="1" vector-effect="non-scaling-stroke"/>
<line x1="682.88" y1="184.15" x2="682.88" y2="181.86" stroke="#1a1a1a" stroke-width="1" vector-effect="non-scaling-stroke"/>
<line x1="682.88" y1="181.86" x2="676.74" y2="181.86" stroke="#1a1a1a" stroke-width="1" vector-effect="non-scaling-stroke"/>
<line x1="676.74" y1="181.86" x2="676.74" y2="184.15" stroke="#1a1a1a" stroke-width="1" vector-effect="non-scaling-stroke"/>
<line x1="676.74" y1="184.15" x2="674.57" y2="178.01" stroke="#1a1a1a" stroke-width="1" vector-effect="non-scaling-stroke"/>
<line x1="674.57" y1="178.01" x2="627.75" y2="131.19" stroke="#1a1a1a" stroke-width="1" vector-effect="non-scaling-stroke"/>
<line x1="627.75" y1="131.19" x2="300.57" y2="131.19" stroke="#1a1a1a" stroke-width="1" vector-effect="non-scaling-stroke"/>
<line x1="300.57" y1="131.19" x2="253.75" y2="178.01" stroke="#1a1a1a" stroke-width="1" vector-effect="non-scaling-stroke"/>
<line x1="253.75" y1="178.01" x2="251.58" y2="184.15" stroke="#1a1a1a" stroke-width="1" vector-effect="non-scaling-stroke"/>
<line x1="251.58" y1="184.15" x2="251.58" y2="181.86" stroke="#1a1a1a" stroke-width="1" vector-effect="non-scaling-stroke"/>
<line x1="251.58" y1="181.86" x2="245.44" y2="181.86" stroke="#1a1a1a" stroke-width="1" vector-effect="non-scaling-stroke"/>
<line x1="245.44" y1="181.86" x2="245.44" y2="184.15" stroke="#1a1a1a" stroke-width="1" vector-effect="non-scaling-stroke"/>
<line x1="245.44" y1="184.15" x2="243.27" y2="178.01" stroke="#1a1a1a" stroke-width="1" vector-effect="non-scaling-stroke"/>
<line x1="243.27" y1="178.01" x2="196.44" y2="131.19" stroke="#1a1a1a" stroke-width="1" vector-effect="non-scaling-stroke"/>
<line x1="196.44" y1="131.19" x2="109.56" y2="131.19" stroke="#1a1a1a" stroke-width="1" vector-effect="non-scaling-stroke"/>
<line x1="109.56" y1="131.19" x2="109.56" y2="269.35" stroke="#1a1a1a" stroke-width="1" vector-effect="non-scaling-stroke"/>
<line x1="106.49" y1="272.42" x2="106.24" y2="272.42" stroke="#1a1a1a" stroke-width="1" vector-effect="non-scaling-stroke"/>
<line x1="72.73" y1="272.42" x2="72.73" y2="303.11" stroke="#1a1a1a" stroke-width="1" vector-effect="non-scaling-stroke"/>
<line x1="106.24" y1="303.11" x2="106.49" y2="303.11" stroke="#1a1a1a" stroke-width="1" vector-effect="non-scaling-stroke"/>
<line x1="109.56" y1="306.18" x2="109.56" y2="475.03" stroke="#1a1a1a" stroke-width="1" vector-effect="non-scaling-stroke"/>
<line x1="109.56" y1="475.03" x2="165.75" y2="475.03" stroke="#1a1a1a" stroke-width="1" vector-effect="non-scaling-stroke"/>
<line x1="165.75" y1="475.03" x2="243.27" y2="397.51" stroke="#1a1a1a" stroke-width="1" vector-effect="non-scaling-stroke"/>
<line x1="243.27" y1="397.51" x2="245.44" y2="391.38" stroke="#1a1a1a" stroke-width="1" vector-effect="non-scaling-stroke"/>
<line x1="245.44" y1="391.38" x2="245.44" y2="393.67" stroke="#1a1a1a" stroke-width="1" vector-effect="non-scaling-stroke"/>
<line x1="245.44" y1="393.67" x2="251.58" y2="393.67" stroke="#1a1a1a" stroke-width="1" vector-effect="non-scaling-stroke"/>
<line x1="251.58" y1="393.67" x2="251.58" y2="391.38" stroke="#1a1a1a" stroke-width="1" vector-effect="non-scaling-stroke"/>
<line x1="251.58" y1="391.38" x2="253.75" y2="397.51" stroke="#1a1a1a" stroke-width="1" vector-effect="non-scaling-stroke"/>
<line x1="253.75" y1="397.51" x2="331.27" y2="475.03" stroke="#1a1a1a" stroke-width="1" vector-effect="non-scaling-stroke"/>
<line x1="331.27" y1="475.03" x2="435.75" y2="475.03" stroke="#1a1a1a" stroke-width="1" vector-effect="non-scaling-stroke"/>
<line x1="435.75" y1="475.03" x2="435.75" y2="391.36" stroke="#1a1a1a" stroke-width="1" vector-effect="non-scaling-stroke"/>
<line x1="435.75" y1="391.36" x2="435.77" y2="391.36" stroke="#1a1a1a" stroke-width="1" vector-effect="non-scaling-stroke"/>
<line x1="435.77" y1="391.36" x2="435.77" y2="393.67" stroke="#1a1a1a" stroke-width="1" vector-effect="non-scaling-stroke"/>
<line x1="435.77" y1="393.67" x2="666.81" y2="393.67" stroke="#1a1a1a" stroke-width="1" vector-effect="non-scaling-stroke"/>
<line x1="680.59" y1="407.45" x2="680.59" y2="843.42" stroke="#1a1a1a" stroke-width="1" vector-effect="non-scaling-stroke"/>
<line x1="680.59" y1="843.42" x2="956.86" y2="843.42" stroke="#1a1a1a" stroke-width="1" vector-effect="non-scaling-stroke"/>
<line x1="956.86" y1="843.42" x2="956.86" y2="407.45" stroke="#1a1a1a" stroke-width="1" vector-effect="non-scaling-stroke"/>
<path d="M 676.59 393.67 H 684.59 M 680.59 389.67 V 397.67" stroke="#d00" stroke-width="1.5" vector-effect="non-scaling-stroke"/>
<path d="M 952.86 393.67 H 960.86 M 956.86 389.67 V 397.67" stroke="#d00" stroke-width="1.5" vector-effect="non-scaling-stroke"/>
<text x="72.73" y="846.55" font-size="11" fill="#888">SOLIDWORKS Educational Product.</text>
<text x="72.73" y="868.81" font-size="11" fill="#888">For Instructional Use Only.</text>
</svg>